<?xml version="1.0" encoding="UTF-8" standalone="no"?>
<svg width="14px" height="14px" viewBox="0 0 14 14" version="1.1" xmlns="http://www.w3.org/2000/svg" xmlns:xlink="http://www.w3.org/1999/xlink" xmlns:sketch="http://www.bohemiancoding.com/sketch/ns">
    <!-- Generator: Sketch 3.0.1 (7597) - http://www.bohemiancoding.com/sketch -->
    <title>nur X</title>
    <description>Created with Sketch.</description>
    <defs></defs>
    <g id="Page-1" stroke="none" stroke-width="1" fill="none" fill-rule="evenodd" sketch:type="MSPage">
        <path d="M7,5.58578644 L11.954416,0.631370426 C12.3422297,0.243556726 12.9734367,0.245514678 13.363961,0.636038969 C13.757208,1.02928592 13.7565755,1.65763806 13.3686296,2.04558399 L8.41421356,7 L13.3686296,11.954416 C13.7564433,12.3422297 13.7544853,12.9734367 13.363961,13.363961 C12.9707141,13.757208 12.3423619,13.7565755 11.954416,13.3686296 L7,8.41421356 L2.04558399,13.3686296 C1.65777029,13.7564433 1.02656326,13.7544853 0.636038969,13.363961 C0.242792014,12.9707141 0.2434245,12.3423619 0.631370426,11.954416 L5.58578644,7 L0.631370426,2.04558399 C0.243556726,1.65777029 0.245514678,1.02656326 0.636038969,0.636038969 C1.02928592,0.242792014 1.65763806,0.2434245 2.04558399,0.631370426 L7,5.58578644 Z" id="X" fill="#FFFFFF" sketch:type="MSShapeGroup"></path>
    </g>
</svg>
