<?xml version="1.0" encoding="UTF-8" standalone="no"?>
<svg width="312px" height="312px" viewBox="0 0 312 312" version="1.1" xmlns="http://www.w3.org/2000/svg" xmlns:xlink="http://www.w3.org/1999/xlink" xmlns:sketch="http://www.bohemiancoding.com/sketch/ns">
    <title>scanner</title>
    <description>Created with Sketch (http://www.bohemiancoding.com/sketch)</description>
    <defs></defs>
    <g id="Page-1" stroke="none" stroke-width="1" fill="none" fill-rule="evenodd" sketch:type="MSPage">
        <g id="Rectangle-3-+-Rectangle-2" sketch:type="MSLayerGroup" fill="#D0011B">
            <path d="M2,250 L2,294.008709 C2,302.840455 9.16000079,310 17.9912909,310 L62,310 L62,310 L62,288 L32.0044176,288 C28.6896838,288 26,285.312352 26,281.996971 L26,250 L2,250 Z M2,62 L2,17.9912909 C2,9.16000079 9.15954482,2 17.9912909,2 L62,2 L62,25 L32.0044176,25 C28.6882693,25 26,27.6886704 26,31.0030294 L26,62 L2,62 Z M310,250 L310,294.008709 C310,302.839999 302.840455,310 294.008709,310 L250,310 L250,310 L250,288 L280.995582,288 C284.311731,288 287,285.31133 287,281.996971 L287,250 L310,250 Z M310,62 L310,17.9912909 C310,9.15954482 302.839999,2 294.008709,2 L250,2 L250,25 L280.995582,25 C284.310316,25 287,27.6876478 287,31.0030294 L287,62 L310,62 Z" id="Rectangle-3" sketch:type="MSShapeGroup"></path>
        </g>
    </g>
</svg>